<?xml version="1.0" standalone="no"?>
<!DOCTYPE svg PUBLIC "-//W3C//DTD SVG 20010904//EN"
 "http://www.w3.org/TR/2001/REC-SVG-20010904/DTD/svg10.dtd">
<svg version="1.0" xmlns="http://www.w3.org/2000/svg"
 width="700.000000pt" height="700.000000pt" viewBox="0 0 700.000000 700.000000"
 preserveAspectRatio="xMidYMid meet">
<metadata>
Created by potrace 1.14, written by Peter Selinger 2001-2017
</metadata>
<g transform="translate(0.000000,700.000000) scale(0.100000,-0.100000)"
fill="#000000" stroke="none">
<path d="M2940 6049 c-114 -14 -144 -22 -230 -57 -277 -112 -436 -371 -463
-752 -3 -32 -5 -35 -32 -33 -123 9 -359 11 -400 3 -27 -6 -62 -13 -77 -15 -61
-11 -159 -54 -227 -100 -211 -140 -323 -415 -325 -800 0 -115 8 -263 18 -335
3 -14 7 -47 10 -75 16 -123 67 -367 108 -510 32 -113 110 -356 113 -353 1 2 6
48 10 103 7 111 10 135 20 197 32 189 69 307 146 457 l58 114 -2 131 c-1 112
2 139 20 189 55 147 229 313 381 363 81 27 256 25 377 -5 159 -39 231 -67 490
-197 236 -117 314 -141 457 -137 165 5 251 32 458 145 150 81 373 162 513 184
23 3 53 8 67 11 70 12 296 14 370 4 300 -44 434 -271 397 -673 -5 -44 15 -100
65 -188 20 -36 44 -85 53 -110 9 -25 21 -54 26 -65 20 -44 78 -288 94 -395 4
-25 9 -52 10 -60 2 -8 4 -28 4 -44 1 -39 9 -29 16 20 3 21 10 59 15 84 8 40
16 84 34 195 3 17 12 71 21 120 9 50 20 115 25 145 10 60 37 219 45 263 3 15
7 39 10 55 3 15 10 61 16 102 9 64 39 220 55 285 27 107 45 267 45 385 0 74
-2 146 -5 160 -3 14 -9 41 -12 60 -12 71 -6 69 -97 39 -129 -42 -306 -36 -402
13 -52 27 -70 55 -70 108 0 43 5 53 45 96 54 57 130 159 130 173 0 5 4 11 8
13 22 9 117 238 98 238 -3 0 -43 -25 -88 -57 -148 -100 -257 -135 -412 -132
-164 4 -226 26 -501 179 -335 187 -720 352 -945 405 -59 14 -160 35 -185 40
-103 17 -273 24 -355 14z"/>
<path d="M2108 2765 c-2 -1 -37 -6 -78 -10 -108 -9 -144 -13 -187 -19 -21 -3
-58 -8 -83 -11 -75 -9 -232 -35 -287 -47 -75 -16 -87 -33 -90 -131 -2 -104 7
-137 56 -200 56 -74 89 -156 107 -274 23 -150 65 -287 124 -408 83 -167 204
-269 395 -334 212 -71 464 -52 670 51 83 42 171 106 231 170 118 124 236 342
305 563 37 119 135 164 226 102 42 -29 61 -64 83 -155 10 -43 32 -114 48 -157
154 -419 415 -643 752 -648 414 -6 686 179 808 548 16 50 42 146 57 215 24
113 32 133 80 205 81 124 87 141 93 237 4 87 4 88 -25 116 -28 25 -106 57
-172 68 -14 3 -79 21 -143 39 -65 19 -164 41 -220 49 -111 16 -401 19 -484 6
-28 -5 -74 -11 -103 -14 -42 -5 -145 -25 -261 -51 -239 -53 -328 -62 -599 -59
-156 1 -215 6 -286 22 -49 11 -103 23 -120 25 -35 6 -130 28 -270 62 -55 13
-116 27 -135 31 -34 6 -485 15 -492 9z m477 -115 c180 -21 302 -62 416 -137
91 -60 129 -187 105 -347 -7 -47 -71 -245 -92 -285 -8 -14 -14 -29 -14 -33 0
-4 -21 -42 -46 -85 -144 -243 -341 -355 -629 -355 -120 0 -154 4 -230 29 -214
70 -358 267 -419 573 -35 176 -39 345 -11 405 64 135 227 209 505 232 41 3 76
7 78 8 7 6 274 2 337 -5z m1985 -54 c47 -4 94 -9 105 -11 11 -3 36 -7 55 -9
132 -17 255 -65 321 -127 21 -19 48 -54 60 -79 22 -40 24 -57 23 -161 -1 -64
-7 -140 -13 -170 -6 -30 -13 -69 -16 -87 -10 -60 -66 -216 -97 -272 -128 -226
-320 -334 -578 -326 -346 10 -561 184 -696 564 -52 146 -67 223 -62 317 9 141
60 210 204 275 58 26 153 58 202 66 12 2 34 6 50 9 15 3 63 8 107 12 44 3 81
6 82 7 4 3 172 -2 253 -8z"/>
</g>
</svg>
